<?xml version="1.0" encoding="utf-8"?>
<!-- Generator: Adobe Illustrator 16.0.0, SVG Export Plug-In . SVG Version: 6.00 Build 0)  -->
<!DOCTYPE svg PUBLIC "-//W3C//DTD SVG 1.1//EN" "http://www.w3.org/Graphics/SVG/1.1/DTD/svg11.dtd">
<svg version="1.1" id="Capa_1" xmlns="http://www.w3.org/2000/svg" xmlns:xlink="http://www.w3.org/1999/xlink" x="0px" y="0px"
	 width="612px" height="611.997px" viewBox="0 90 612 611.997" enable-background="new 0 90 612 611.997" xml:space="preserve">
<g>
	<path fill="#F7657D" d="M507.389,289.984c-8.129,0-14.722,6.593-14.722,14.722v367.848H29.444V209.333h360.175
		c8.131,0,14.722-6.593,14.722-14.722s-6.591-14.722-14.722-14.722H14.722C6.593,179.889,0,186.482,0,194.611v492.664
		c0,8.129,6.593,14.722,14.722,14.722h492.667c8.129,0,14.722-6.593,14.722-14.722V304.706
		C522.11,296.577,515.518,289.984,507.389,289.984z"/>
	<path fill="#F7657D" d="M607.687,94.313c-5.749-5.749-15.07-5.754-20.819,0L197.312,483.866l-96.656-96.656
		c-5.749-5.751-15.073-5.751-20.819,0c-5.749,5.749-5.749,15.07,0,20.816l107.067,107.067c2.873,2.876,6.642,4.313,10.411,4.313
		c3.769,0,7.535-1.438,10.411-4.313l399.961-399.961C613.438,109.384,613.438,100.063,607.687,94.313z"/>
</g>
</svg>
