<?xml version="1.0" encoding="utf-8"?>
<!-- Generator: Adobe Illustrator 16.0.0, SVG Export Plug-In . SVG Version: 6.00 Build 0)  -->
<!DOCTYPE svg PUBLIC "-//W3C//DTD SVG 1.1//EN" "http://www.w3.org/Graphics/SVG/1.1/DTD/svg11.dtd">
<svg version="1.1" id="Layer_1" xmlns="http://www.w3.org/2000/svg" xmlns:xlink="http://www.w3.org/1999/xlink" x="0px" y="0px"
	 width="612px" height="560.793px" viewBox="0 115.604 612 560.793" enable-background="new 0 115.604 612 560.793"
	 xml:space="preserve">
<g>
	<g>
		<path fill="#52B6BC" d="M188.737,312.217c-3.845-3.119-9.49-2.531-12.609,1.316c-3.622,4.466-8.423,6.924-13.522,6.924
			c-5.1,0-9.901-2.46-13.523-6.924c-3.119-3.845-8.765-4.434-12.609-1.316c-3.845,3.118-4.435,8.764-1.316,12.609
			c6.989,8.618,16.994,13.561,27.448,13.561c10.454,0,20.458-4.942,27.448-13.561C193.172,320.981,192.583,315.335,188.737,312.217z
			"/>
	</g>
</g>
<g>
	<g>
		<path fill="#52B6BC" d="M121.635,259.001c-4.951,0-8.965,4.014-8.965,8.965v10.243c0,4.951,4.014,8.965,8.965,8.965
			c4.951,0,8.965-4.014,8.965-8.965v-10.243C130.6,263.015,126.585,259.001,121.635,259.001z"/>
	</g>
</g>
<g>
	<g>
		<path fill="#52B6BC" d="M203.576,259.001c-4.951,0-8.965,4.014-8.965,8.965v10.243c0,4.951,4.013,8.965,8.965,8.965
			c4.951,0,8.965-4.014,8.965-8.965v-10.243C212.541,263.015,208.527,259.001,203.576,259.001z"/>
	</g>
</g>
<g>
	<g>
		<path fill="#52B6BC" d="M485.774,363.429c-3.846-3.119-9.491-2.53-12.609,1.316c-3.622,4.464-8.425,6.924-13.522,6.924
			c-5.1,0-9.901-2.46-13.523-6.924c-3.117-3.846-8.764-4.435-12.609-1.316c-3.845,3.119-4.434,8.764-1.314,12.609
			c6.988,8.62,16.992,13.561,27.447,13.561c10.454,0,20.457-4.942,27.446-13.561C490.208,372.193,489.619,366.548,485.774,363.429z"
			/>
	</g>
</g>
<g>
	<g>
		<path fill="#52B6BC" d="M418.672,310.215c-4.951,0-8.965,4.014-8.965,8.965v10.243c0,4.951,4.014,8.965,8.965,8.965
			c4.95,0,8.965-4.014,8.965-8.965V319.18C427.637,314.229,423.622,310.215,418.672,310.215z"/>
	</g>
</g>
<g>
	<g>
		<path fill="#52B6BC" d="M500.613,310.215c-4.951,0-8.965,4.014-8.965,8.965v10.243c0,4.951,4.013,8.965,8.965,8.965
			c4.951,0,8.965-4.014,8.965-8.965V319.18C509.578,314.229,505.564,310.215,500.613,310.215z"/>
	</g>
</g>
<g>
	<g>
		<path fill="#52B6BC" d="M587.053,487.498l-70.233-28.094c-0.38-0.152-0.731-0.346-1.088-0.532
			c48.51-11.038,71.483-29.496,72.503-30.331c2.426-1.988,3.637-5.099,3.193-8.202c-0.102-0.71-10.153-71.881-10.153-142.128
			c0-67.07-54.565-121.635-121.635-121.635S338.007,211.14,338.007,278.21c0,18.376-0.835,40.854-2.192,62.131l-19.571,9.786
			l-57.447-28.723c-0.165-0.082-0.338-0.142-0.507-0.214c2.732-7.964,4.52-16.363,5.176-25.078
			c12.017-3.713,20.772-14.926,20.772-28.146c0-8.904-3.978-16.891-10.243-22.296v-59.646c0-16.478-8.325-31.895-21.978-41.159
			c-4.626-17.188-20.069-29.263-38.2-29.263h-81.941c-44.478,0-80.664,36.186-80.664,80.664v49.402
			c-6.265,5.404-10.243,13.393-10.243,22.296c0,13.22,8.756,24.434,20.772,28.146c2.264,30.097,17.774,56.541,40.684,73.56v24.779
			l-74.139,22.241C11.368,421.77,0,437.047,0,454.711v100.05c0,4.951,4.014,8.965,8.965,8.965h1.278V667.43
			c0,4.951,4.014,8.966,8.965,8.966s8.965-4.015,8.965-8.966V563.726h33.284V667.43c0,4.951,4.014,8.966,8.965,8.966
			c4.951,0,8.965-4.015,8.965-8.966V512.852c0-7.863-2.306-15.478-6.666-22.018l-15.324-22.986
			c-2.747-4.12-8.313-5.232-12.431-2.487c-4.12,2.745-5.233,8.313-2.486,12.433l15.324,22.987c2.391,3.586,3.655,7.76,3.655,12.071
			v32.944h-42.25H17.93v-91.085c0-9.686,6.232-18.062,15.511-20.845l30.776-9.233c10.717,44.875,51.419,77.637,98.389,77.637
			c16.874,0,33.262-4.161,47.937-12.079c5.363,7.316,14.014,12.079,23.76,12.079h1.278v1.277c0,30.054,16.534,56.304,40.971,70.18
			v14.622c0,0.55-0.352,1.038-0.874,1.213l-33.441,11.147c-16.234,5.411-27.141,20.544-27.141,37.656v29.064
			c0,4.951,4.014,8.965,8.965,8.965c4.951,0,8.965-4.014,8.965-8.965v-29.064c0-9.383,5.98-17.681,14.88-20.646l9.834-3.278
			c13.01,19.402,34.89,31.228,58.503,31.228c23.639,0,45.499-11.818,58.506-31.227l9.832,3.277
			c8.9,2.967,14.881,11.264,14.881,20.646v29.064c0,4.951,4.014,8.966,8.965,8.966c4.95,0,8.965-4.015,8.965-8.966v-29.064
			c0-17.112-10.907-32.245-27.142-37.655l-33.441-11.147c-0.522-0.175-0.873-0.661-0.873-1.212v-14.623
			c18.297-10.39,32.146-27.717,37.955-48.388c16.94,17.727,40.603,28.146,65.748,28.146c39.699,0,74.532-25.662,86.53-63.027
			l34.221,13.688c8.312,3.324,13.681,11.257,13.681,20.206v41.931h-1.277h-32.006v-11.521c0-4.951-4.015-8.965-8.966-8.965
			c-4.95,0-8.965,4.014-8.965,8.965v112.67c0,4.951,4.015,8.965,8.965,8.965c4.951,0,8.966-4.014,8.966-8.965v-83.22h23.041v83.22
			c0,4.951,4.014,8.965,8.965,8.965c4.95,0,8.965-4.014,8.965-8.965v-83.22h1.277c2.378,0,4.657-0.944,6.339-2.625
			c1.682-1.682,2.626-3.961,2.626-6.34v-50.896C612.004,508.026,602.21,493.561,587.053,487.498z M355.938,278.209
			c0-57.183,46.521-103.705,103.705-103.705c57.183,0,103.703,46.522,103.703,103.705c0,60.2,7.25,121.055,9.605,139.229
			c-8.033,5.256-28.603,16.831-63.373,24.438v-14.266c4.762-2.699,9.321-5.78,13.607-9.244
			c17.641-14.259,30.106-34.229,35.098-56.23c1.664-7.331,2.508-14.891,2.508-22.471c0-50.671-36.645-57.946-72.083-64.981
			c-22.55-4.476-45.867-9.106-64.436-23.96c-2.69-2.153-6.377-2.572-9.483-1.08c-3.106,1.493-5.081,4.633-5.081,8.081
			c0,0.238-0.392,23.826-34.181,32.273c-4.804,1.202-7.724,6.069-6.522,10.873c1.2,4.804,6.068,7.722,10.871,6.523
			c28.281-7.07,39.818-22.936,44.523-34.855c19.44,11.521,41.218,15.843,60.816,19.734c37.879,7.52,57.646,13.043,57.646,47.394
			c0,6.247-0.694,12.472-2.063,18.503c-4.106,18.09-14.363,34.516-28.886,46.254c-14.941,12.078-33.017,18.461-52.271,18.461
			c-17.553,0-34.257-5.384-48.434-15.558c-5.193-14.175-13.536-27.144-24.543-37.83v-40.073c0-3.108-1.609-5.993-4.252-7.626
			c-2.644-1.633-5.942-1.782-8.723-0.392l-19.355,9.677C355.397,312.414,355.938,294.664,355.938,278.209z M368.735,343.928v32.444
			L336.29,360.15L368.735,343.928z M263.753,343.928l32.444,16.223l-32.444,16.222V343.928z M215.095,442.091v8.515
			c-6.419,5.542-10.243,13.654-10.243,22.212c-12.768,7.544-27.273,11.522-42.249,11.522c-38.996,0-72.734-27.442-81.174-64.87
			l22.148-6.645c5.464,27.597,29.85,48.474,59.027,48.474c23.168,0,43.308-13.169,53.36-32.408
			C215.391,433.244,215.095,437.652,215.095,442.091z M120.357,401.105v-20.766c12.864,5.941,27.174,9.26,42.249,9.26
			c15.073,0,29.384-3.32,42.249-9.259v20.778c0,23.295-18.952,42.248-42.249,42.248c-23.257,0-42.183-18.891-42.247-42.134
			C120.359,401.19,120.357,401.147,120.357,401.105z M162.605,371.67c-45.889,0-83.22-37.331-83.22-83.218
			c0-4.951-4.014-8.965-8.965-8.965c-6.352,0-11.521-5.168-11.521-11.521s5.167-11.521,11.521-11.521h20.485
			c3.859,0,7.285-2.468,8.505-6.129l8.229-24.686c20.602-0.465,84.466-3.361,120.43-21.343c4.429-2.215,6.224-7.599,4.009-12.027
			c-2.214-4.429-7.598-6.224-12.027-4.009c-38.586,19.292-118.106,19.539-118.904,19.539c-3.859,0.001-7.285,2.47-8.504,6.131
			l-8.199,24.597H70.421c-0.428,0-0.854,0.015-1.278,0.032v-42.282c0-34.591,28.143-62.734,62.734-62.734h81.941
			c10.705,0,19.699,7.716,21.388,18.344c0.429,2.702,2.068,5.059,4.45,6.402c10.122,5.709,16.411,16.339,16.411,27.743v52.523
			c-0.424-0.019-0.849-0.032-1.278-0.032h-10.243c-4.951,0-8.965,4.014-8.965,8.965c0,4.951,4.014,8.965,8.965,8.965h10.243
			c6.352,0,11.521,5.167,11.521,11.521c0,6.353-5.167,11.52-11.521,11.52c-4.951,0-8.965,4.014-8.965,8.965
			C245.825,334.338,208.494,371.67,162.605,371.67z M222.782,401.121v-31.449c8.918-6.625,16.713-14.674,23.041-23.82v23.645
			c-10.039,9.747-17.865,21.391-23.104,34.119C222.754,402.786,222.782,401.957,222.782,401.121z M356.86,608.477
			c-9.87,12.058-24.696,19.261-40.616,19.261c-15.9,0-30.736-7.208-40.609-19.262l5.713-1.904
			c7.856-2.617,13.134-9.941,13.134-18.221v-7.146c6.928,1.944,14.222,3.007,21.764,3.007c7.541,0,14.835-1.063,21.763-3.007v7.146
			c-0.001,8.278,5.276,15.603,13.133,18.22L356.86,608.477z M387.944,484.34c-4.951,0-8.965,4.014-8.965,8.965v8.913
			c0,0.078-0.001,0.155,0,0.233v1.096c-0.001,34.592-28.144,62.734-62.735,62.734c-34.591,0-62.732-28.143-62.732-62.734v-10.242
			c0-4.951-4.014-8.965-8.965-8.965h-10.243c-6.352,0-11.521-5.168-11.521-11.521c0-4.088,2.164-7.788,5.787-9.896
			c0.809-0.471,1.513-1.067,2.123-1.741c22.162-0.643,93.999-4.813,141.213-31.792c4.298-2.456,5.792-7.933,3.336-12.231
			c-2.457-4.3-7.935-5.793-12.232-3.337c-41.36,23.634-106.352,28.366-129.983,29.312v-1.042c0-16.674,5.049-32.821,14.198-46.435
			c0.716,1.135,1.674,2.119,2.852,2.848c1.44,0.889,3.075,1.339,4.713,1.339c1.37,0,2.743-0.314,4.009-0.947l57.447-28.723
			l57.446,28.723c1.267,0.633,2.64,0.947,4.01,0.947c1.64,0,3.273-0.45,4.713-1.339c1.178-0.729,2.135-1.715,2.851-2.848
			c9.149,13.613,14.198,29.761,14.198,46.435v13.084c0,3.191,1.696,6.143,4.456,7.748c3.624,2.11,5.788,5.809,5.788,9.896
			c0,6.352-5.169,11.521-11.521,11.521H387.944z M459.643,535.553c-24.82,0-47.847-12.636-61.251-33.288
			c16.144-0.111,29.245-13.275,29.245-29.444c0-8.559-3.824-16.671-10.243-22.214v-8.515c0-3.608-0.194-7.196-0.576-10.752
			c13.293,6.232,27.807,9.474,42.825,9.474c10.931,0,21.741-1.812,32.006-5.234v13.128c0,12.112,7.266,22.846,18.512,27.344
			l19.332,7.732C520.227,514.417,491.934,535.553,459.643,535.553z"/>
	</g>
</g>
<g>
	<g>
		<path fill="#52B6BC" d="M342.378,517.069c-3.846-3.118-9.491-2.53-12.609,1.316c-3.623,4.466-8.425,6.925-13.522,6.925
			c-5.099,0-9.901-2.459-13.523-6.925c-3.119-3.846-8.765-4.435-12.609-1.316c-3.846,3.119-4.435,8.765-1.316,12.609
			c6.99,8.617,16.994,13.562,27.449,13.562c10.454,0,20.457-4.942,27.447-13.56C346.812,525.835,346.222,520.188,342.378,517.069z"
			/>
	</g>
</g>
<g>
	<g>
		<circle fill="#52B6BC" cx="285.681" cy="483.103" r="8.965"/>
	</g>
</g>
<g>
	<g>
		<circle fill="#52B6BC" cx="346.643" cy="483.103" r="8.965"/>
	</g>
</g>
</svg>
