<?xml version="1.0" encoding="utf-8"?>
<!-- Generator: Adobe Illustrator 16.0.0, SVG Export Plug-In . SVG Version: 6.00 Build 0)  -->
<!DOCTYPE svg PUBLIC "-//W3C//DTD SVG 1.1//EN" "http://www.w3.org/Graphics/SVG/1.1/DTD/svg11.dtd">
<svg version="1.1" id="Layer_1" xmlns="http://www.w3.org/2000/svg" xmlns:xlink="http://www.w3.org/1999/xlink" x="0px" y="0px"
	 width="610.188px" height="612px" viewBox="0.907 90 610.188 612" enable-background="new 0.907 90 610.188 612"
	 xml:space="preserve">
<g>
	<g>
		<g>
			<path fill="#52B6BC" d="M306.002,90l-111.468,70.604c-15.856-10.599-26.316-28.649-26.316-49.111h-19.684
				c0,32.566-26.484,59.051-59.05,59.051v19.683c13.758,0,26.396,4.764,36.444,12.677L0.907,283.272v121.674l59.05-37.4v78.566
				c0,27.133-22.075,49.21-49.21,49.21v19.684c27.133,0,49.21,22.075,49.21,49.21V702h78.734h157.468h255.886V367.546l59.05,37.4
				V283.224L306.002,90z M158.375,149.582c7.174,12.923,17.882,23.631,30.805,30.805c-12.923,7.174-23.63,17.874-30.805,30.805
				c-3.947-7.115-9.045-13.462-14.92-19.014l-0.246-0.384l-0.109,0.069c-4.703-4.401-9.862-8.327-15.531-11.476
				C140.493,173.212,151.199,162.513,158.375,149.582z M46.208,505.165c9.646-5.815,17.775-13.945,23.591-23.591
				c5.815,9.646,13.945,17.783,23.591,23.591c-9.646,5.815-17.775,13.945-23.591,23.591C63.982,519.11,55.853,510.98,46.208,505.165
				z M276.476,682.316H158.375v-0.002V426.432h118.101V682.316z M532.361,682.314H296.159V406.745H138.691v275.569h-59.05V564.214
				c0-27.133,22.075-49.21,49.209-49.21V495.32c-27.133,0-49.209-22.075-49.209-49.21v-91.027L306,211.718l63.449,40.184
				C353.348,268.455,330.869,278.8,306,278.8v19.688c48.834,0,88.577,39.73,88.577,88.577h19.683
				c0-33.423,18.621-62.563,46.021-77.643l72.081,45.655V682.314z M404.42,235.313c10.816,23.521,29.819,42.516,53.322,53.333
				c-23.511,10.817-42.506,29.81-53.322,53.333c-10.817-23.521-29.82-42.516-53.323-53.333
				C374.6,277.83,393.601,258.835,404.42,235.313z M591.411,369.18L591.411,369.18l-108.083-68.459
				c6.288-1.417,12.794-2.234,19.507-2.234v-19.684c-48.834,0-88.577-39.73-88.577-88.577h-19.684
				c0,16.868-4.822,32.596-13.04,46.029l-75.536-47.841L20.59,369.18V294.02l118.712-76.313c5.816,9.144,9.232,19.958,9.232,31.571
				h19.684c0-32.566,26.484-59.051,59.05-59.051v-19.683c-3.475,0-6.859-0.363-10.166-0.935l88.9-56.304l285.412,180.763v75.112
				H591.411z"/>
			<path fill="#52B6BC" d="M335.526,524.849h147.627V406.748H335.526V524.849z M355.21,426.432h108.26v78.733H355.21V426.432z"/>
			<rect x="237.109" y="554.373" fill="#52B6BC" width="19.684" height="19.684"/>
			<rect x="424.103" y="446.114" fill="#52B6BC" width="19.684" height="19.684"/>
			<rect x="492.994" y="642.947" fill="#52B6BC" width="19.684" height="19.684"/>
			<rect x="453.627" y="642.947" fill="#52B6BC" width="19.684" height="19.684"/>
			<rect x="414.26" y="642.947" fill="#52B6BC" width="19.684" height="19.684"/>
		</g>
	</g>
</g>
</svg>
