<?xml version="1.0" encoding="utf-8"?>
<!-- Generator: Adobe Illustrator 16.0.0, SVG Export Plug-In . SVG Version: 6.00 Build 0)  -->
<!DOCTYPE svg PUBLIC "-//W3C//DTD SVG 1.1//EN" "http://www.w3.org/Graphics/SVG/1.1/DTD/svg11.dtd">
<svg version="1.1" id="Capa_1" xmlns="http://www.w3.org/2000/svg" xmlns:xlink="http://www.w3.org/1999/xlink" x="0px" y="0px"
	 width="24.151px" height="27.555px" viewBox="1.701 0 24.151 27.555" enable-background="new 1.701 0 24.151 27.555"
	 xml:space="preserve">
<g>
	<path fill="#F7657D" d="M13.777,0C7.108,0,1.701,5.407,1.701,12.076c0,3.448,1.452,6.553,3.771,8.752L5.07,27.555l5.736-3.787
		c0.952,0.241,1.944,0.383,2.971,0.383c6.67,0,12.076-5.404,12.076-12.074C25.854,5.407,20.447,0,13.777,0z M12.61,11.342
		c0,1.24-0.258,2.219-0.772,2.936c-0.518,0.719-1.4,1.354-2.654,1.9l-0.945-1.789c0.771-0.361,1.306-0.722,1.6-1.08
		c0.295-0.358,0.459-0.784,0.493-1.271H8.237V7.974h4.373V11.342z M19.317,11.342c0,1.24-0.258,2.219-0.772,2.936
		c-0.518,0.721-1.4,1.354-2.654,1.9l-0.944-1.789c0.771-0.361,1.306-0.722,1.601-1.08s0.459-0.784,0.493-1.271h-2.093V7.974h4.373
		L19.317,11.342L19.317,11.342z"/>
</g>
</svg>
