<?xml version="1.0" encoding="utf-8"?>
<!-- Generator: Adobe Illustrator 16.0.0, SVG Export Plug-In . SVG Version: 6.00 Build 0)  -->
<!DOCTYPE svg PUBLIC "-//W3C//DTD SVG 1.1//EN" "http://www.w3.org/Graphics/SVG/1.1/DTD/svg11.dtd">
<svg version="1.1" id="Capa_1" xmlns="http://www.w3.org/2000/svg" xmlns:xlink="http://www.w3.org/1999/xlink" x="0px" y="0px"
	 width="27.555px" height="27.555px" viewBox="0 0 27.555 27.555" enable-background="new 0 0 27.555 27.555" xml:space="preserve">
<g>
	<path fill="#00CDFF" d="M13.777,0C7.108,0,1.701,5.407,1.701,12.076c0,3.449,1.453,6.553,3.772,8.752L5.07,27.555l5.736-3.787
		c0.952,0.241,1.944,0.383,2.971,0.383c6.67,0,12.076-5.405,12.076-12.075C25.854,5.407,20.447,0,13.777,0z M12.61,11.342
		c0,1.24-0.258,2.219-0.773,2.936c-0.517,0.718-1.4,1.353-2.654,1.9l-0.945-1.789c0.771-0.361,1.305-0.722,1.599-1.08
		c0.295-0.359,0.459-0.784,0.493-1.272H8.237V7.974h4.373V11.342z M19.317,11.342c0,1.24-0.258,2.219-0.773,2.936
		c-0.517,0.72-1.4,1.353-2.654,1.9l-0.944-1.789c0.771-0.361,1.305-0.722,1.6-1.08c0.295-0.359,0.459-0.784,0.493-1.272h-2.092
		V7.974h4.373L19.317,11.342L19.317,11.342z"/>
</g>
</svg>
