<?xml version="1.0" encoding="iso-8859-1"?>
<!-- Generator: Adobe Illustrator 19.0.0, SVG Export Plug-In . SVG Version: 6.00 Build 0)  -->
<svg version="1.1" id="Layer_1" xmlns="http://www.w3.org/2000/svg" xmlns:xlink="http://www.w3.org/1999/xlink" x="0px" y="0px"
	 viewBox="0 0 511.998 511.998" style="enable-background:new 0 0 511.998 511.998;" xml:space="preserve">
<g>
	<g>
		<g>
			<path d="M356.85,16.807l-23.007-2.336c-0.042-0.004-0.085-0.003-0.127-0.006C326.197,11.425,295.393,0,257.147,0
				c-42.975,0-79.359,14.139-108.137,42.025c-1.572,1.523-2.459,3.617-2.459,5.805v27.213c0,4.464,3.618,8.084,8.084,8.084h45.251
				v23.703c-7.265,3.675-12.268,11.195-12.268,19.877v15.223c-1.231,0.061-2.435,0.388-3.516,0.986
				c-15.443,8.554-24.821,31.035-29.971,48.388c-6.974,23.506-10.814,53.205-10.814,83.627v154.094v28.458
				c0,11.65,6.935,21.704,16.89,26.271v5.963c0,12.285,9.995,22.282,22.282,22.282h112.007c12.285,0,22.281-9.995,22.281-22.282
				v-5.963c9.954-4.567,16.889-14.621,16.889-26.271v-28.458v-153.71v-0.382c0-0.088-0.011-0.174-0.013-0.262
				c-0.28-27.296-18.302-51.147-43.914-59.156v-44.717c0-9.56-4.67-18.044-11.845-23.307v-20.782
				c0-8.635-4.947-16.122-12.147-19.819V83.75l9.815-3.064l19.061,33.014c3.839,6.649,10.996,10.781,18.68,10.782
				c0.001,0,0,0,0.001,0c3.767,0,7.49-0.999,10.766-2.891c4.987-2.879,8.555-7.528,10.045-13.091
				c1.49-5.562,0.724-11.371-2.155-16.358l-14.217-24.625l16.867-5.265c0.009-0.003,0.017-0.008,0.026-0.011l22.214-2.255
				c6.571-0.269,11.832-5.699,11.832-12.333V29.141C368.681,22.506,363.42,17.077,356.85,16.807z M300.609,489.718L300.609,489.718
				c0,3.372-2.742,6.114-6.114,6.114H182.488c-3.372,0-6.114-2.742-6.114-6.114v-3.341h124.234V489.718z M317.498,420.943h-26.8
				c-4.466,0-8.084,3.618-8.084,8.084c0,4.466,3.618,8.084,8.084,8.084h26.799v20.374c0.001,6.137-4.368,11.273-10.157,12.464
				c-0.056,0.01-0.112,0.012-0.167,0.023c-0.825,0.157-1.632,0.238-2.399,0.238H172.21c-0.767,0-1.575-0.08-2.398-0.238
				c-0.057-0.011-0.114-0.013-0.17-0.023c-5.789-1.191-10.157-6.327-10.157-12.464v-20.374h104.627c4.466,0,8.084-3.618,8.084-8.084
				c0-4.466-3.618-8.084-8.084-8.084H159.485V283.017h158.013V420.943z M266.317,159.332c0.02,0.01,0.042,0.016,0.063,0.026
				c4.249,2.063,7.191,6.409,7.191,11.44v50.99c0,3.86,2.728,7.182,6.516,7.93c18.855,3.729,33.208,18.726,36.627,37.131H159.588
				c0.161-6.965,0.522-13.713,1.067-20.204H181.2c4.466,0,8.084-3.619,8.084-8.084c0-4.464-3.618-8.084-8.084-8.084h-18.755
				c0.565-4.078,1.193-8.04,1.894-11.852h22.18c4.466,0,8.084-3.619,8.084-8.084c0-4.465-3.618-8.084-8.084-8.084H167.9
				c1.086-4.19,2.252-8.152,3.486-11.852h21.601c4.466,0,8.084-3.619,8.084-8.084s-3.618-8.084-8.084-8.084h-15.004
				c3.905-7.767,8.126-13.365,12.35-16.363h5.368h65.145c0.461,0,0.92,0.027,1.375,0.078c0.065,0.008,0.127,0.022,0.192,0.029
				c0.403,0.051,0.805,0.115,1.202,0.206c0.026,0.005,0.05,0.014,0.075,0.019C264.585,158.616,265.463,158.923,266.317,159.332z
				 M203.786,141.906v-15.198c0-3.372,2.743-6.114,6.115-6.114h45.712c3.372,0,6.114,2.742,6.114,6.114v15.211
				c-0.293-0.009-0.586-0.013-0.88-0.013H203.786z M317.958,100.227c0.72,1.246,0.912,2.699,0.539,4.088
				c-0.373,1.39-1.264,2.552-2.51,3.272c-0.833,0.481-1.735,0.724-2.683,0.724c-1.926,0-3.72-1.033-4.68-2.697L291.38,75.748
				l10.545-3.292L317.958,100.227z M324.118,48.59l-20.834,6.504c0,0,0,0-0.001,0l-26.363,8.229c-0.001,0-0.001,0-0.002,0.001
				l-21.664,6.764c-3.376,1.053-5.675,4.18-5.675,7.716v26.622h-33.526V75.044c0-4.464-3.618-8.084-8.084-8.084h-45.251V51.31
				c25.27-23.322,57.021-35.143,94.429-35.143c30.616,0,56.588,8.166,66.971,11.947V48.59z M352.513,44.176l-12.228,1.241v-14.04
				l12.228,1.241V44.176z"/>
			<path d="M238.491,400.824c27.042,0,49.043-22,49.043-49.043c0-27.042-22-49.043-49.043-49.043c-27.042,0-49.043,22-49.043,49.043
				C189.448,378.824,211.448,400.824,238.491,400.824z M238.491,318.907c18.126,0,32.875,14.748,32.875,32.875
				c0,18.126-14.748,32.875-32.875,32.875c-18.126,0-32.875-14.748-32.875-32.875C205.616,333.655,220.364,318.907,238.491,318.907z
				"/>
		</g>
	</g>
</g>
<g>
</g>
<g>
</g>
<g>
</g>
<g>
</g>
<g>
</g>
<g>
</g>
<g>
</g>
<g>
</g>
<g>
</g>
<g>
</g>
<g>
</g>
<g>
</g>
<g>
</g>
<g>
</g>
<g>
</g>
</svg>
