<?xml version="1.0" encoding="utf-8"?>
<!-- Generator: Adobe Illustrator 16.0.0, SVG Export Plug-In . SVG Version: 6.00 Build 0)  -->
<!DOCTYPE svg PUBLIC "-//W3C//DTD SVG 1.1//EN" "http://www.w3.org/Graphics/SVG/1.1/DTD/svg11.dtd">
<svg version="1.1" id="Layer_1" xmlns="http://www.w3.org/2000/svg" xmlns:xlink="http://www.w3.org/1999/xlink" x="0px" y="0px"
	 width="269.383px" height="612.001px" viewBox="171.309 90 269.383 612.001" enable-background="new 171.309 90 269.383 612.001"
	 xml:space="preserve">
<g>
	<g>
		<g>
			<path fill="#52B6BC" d="M426.549,110.09l-27.501-2.792c-0.05-0.005-0.102-0.003-0.151-0.007
				C389.909,103.656,353.088,90,307.372,90c-51.369,0-94.859,16.9-129.258,50.233c-1.879,1.82-2.939,4.323-2.939,6.938V179.7
				c0,5.336,4.325,9.663,9.663,9.663h54.089v28.333c-8.684,4.393-14.664,13.381-14.664,23.759v18.196
				c-1.472,0.073-2.911,0.464-4.203,1.179c-18.459,10.225-29.669,37.097-35.825,57.839c-8.336,28.097-12.926,63.597-12.926,99.961
				v184.191v34.016c0,13.926,8.29,25.943,20.189,31.402v7.128c0,14.685,11.947,26.634,26.634,26.634h133.884
				c14.684,0,26.633-11.947,26.633-26.634v-7.128c11.897-5.459,20.188-17.477,20.188-31.402v-34.016V419.089v-0.457
				c0-0.104-0.014-0.208-0.016-0.313c-0.335-32.628-21.877-61.137-52.491-70.71v-53.451c0-11.427-5.582-21.568-14.158-27.859
				v-24.841c0-10.322-5.914-19.271-14.52-23.69v-27.66l11.731-3.663l22.784,39.462c4.589,7.948,13.144,12.887,22.328,12.888
				c0.002,0,0,0,0.002,0c4.502,0,8.952-1.194,12.868-3.456c5.961-3.441,10.227-8.999,12.007-15.648
				c1.781-6.648,0.866-13.592-2.575-19.553l-16.994-29.435l20.161-6.293c0.011-0.004,0.021-0.01,0.031-0.014l26.553-2.695
				c7.854-0.321,14.144-6.812,14.144-14.742v-22.127C440.69,116.902,434.402,110.413,426.549,110.09z M359.323,675.368
				L359.323,675.368c0,4.03-3.277,7.309-7.309,7.309H218.131c-4.03,0-7.308-3.278-7.308-7.309v-3.993h148.5L359.323,675.368
				L359.323,675.368z M379.511,593.16h-32.034c-5.339,0-9.663,4.325-9.663,9.663c0,5.339,4.324,9.663,9.663,9.663h32.033v24.354
				c0.001,7.336-5.222,13.475-12.141,14.898c-0.067,0.012-0.134,0.014-0.2,0.027c-0.986,0.188-1.95,0.284-2.867,0.284H205.846
				c-0.917,0-1.883-0.096-2.867-0.284c-0.068-0.014-0.136-0.016-0.203-0.027c-6.919-1.424-12.141-7.563-12.141-14.898v-24.354
				h125.062c5.339,0,9.663-4.325,9.663-9.663s-4.324-9.663-9.663-9.663H190.635V428.295h188.875V593.16z M318.333,280.452
				c0.024,0.012,0.051,0.019,0.075,0.031c5.079,2.466,8.596,7.661,8.596,13.674v60.949c0,4.614,3.261,8.585,7.789,9.479
				c22.537,4.457,39.694,22.383,43.78,44.383H190.758c0.192-8.325,0.624-16.391,1.275-24.15h24.558c5.338,0,9.663-4.326,9.663-9.663
				c0-5.336-4.325-9.663-9.663-9.663h-22.418c0.675-4.875,1.426-9.61,2.264-14.167h26.512c5.338,0,9.663-4.326,9.663-9.663
				c0-5.337-4.325-9.663-9.663-9.663h-22.255c1.298-5.008,2.692-9.745,4.167-14.167h25.82c5.338,0,9.663-4.326,9.663-9.663
				c0-5.337-4.325-9.663-9.663-9.663h-17.935c4.668-9.284,9.713-15.975,14.762-19.559h6.417h77.869c0.551,0,1.1,0.032,1.644,0.093
				c0.077,0.009,0.151,0.026,0.229,0.035c0.481,0.061,0.962,0.137,1.437,0.246c0.031,0.006,0.06,0.017,0.09,0.022
				C316.263,279.597,317.313,279.963,318.333,280.452z M243.589,259.623v-18.167c0-4.03,3.279-7.308,7.31-7.308h54.64
				c4.031,0,7.308,3.278,7.308,7.308v18.182c-0.351-0.011-0.7-0.016-1.052-0.016H243.589z M380.061,209.803
				c0.86,1.489,1.09,3.226,0.645,4.886c-0.446,1.662-1.511,3.05-3,3.911c-0.996,0.575-2.074,0.865-3.207,0.865
				c-2.303,0-4.447-1.234-5.595-3.224l-20.612-35.699l12.605-3.935L380.061,209.803z M387.424,148.081l-24.903,7.774
				c0,0,0,0-0.001,0l-31.513,9.836c-0.001,0-0.001,0-0.002,0.001l-25.896,8.085c-4.035,1.259-6.783,4.997-6.783,9.223v31.822
				h-40.074v-35.121c0-5.336-4.325-9.663-9.663-9.663H194.5v-18.707c30.206-27.877,68.158-42.007,112.873-42.007
				c36.596,0,67.641,9.761,80.052,14.28V148.081L387.424,148.081z M421.365,142.804l-14.617,1.483v-16.782l14.617,1.483V142.804z"/>
			<path fill="#52B6BC" d="M285.072,569.111c32.324,0,58.622-26.297,58.622-58.621s-26.297-58.622-58.622-58.622
				c-32.324,0-58.622,26.297-58.622,58.622C226.45,542.814,252.748,569.111,285.072,569.111z M285.072,471.195
				c21.666,0,39.296,17.628,39.296,39.296c0,21.666-17.628,39.296-39.296,39.296c-21.666,0-39.296-17.629-39.296-39.296
				C245.776,488.823,263.405,471.195,285.072,471.195z"/>
		</g>
	</g>
</g>
</svg>
