<?xml version="1.0" encoding="utf-8"?>
<!-- Generator: Adobe Illustrator 16.0.0, SVG Export Plug-In . SVG Version: 6.00 Build 0)  -->
<!DOCTYPE svg PUBLIC "-//W3C//DTD SVG 1.1//EN" "http://www.w3.org/Graphics/SVG/1.1/DTD/svg11.dtd">
<svg version="1.1" id="Capa_1" xmlns="http://www.w3.org/2000/svg" xmlns:xlink="http://www.w3.org/1999/xlink" x="0px" y="0px"
	 width="612px" height="612px" viewBox="0 90 612 612" enable-background="new 0 90 612 612" xml:space="preserve">
<g>
	<path fill="#52B6BC" d="M306,90C137.271,90,0,227.271,0,396s137.271,306,306,306s306-137.271,306-306S474.729,90,306,90z
		 M306,681.6C148.522,681.6,20.4,553.478,20.4,396S148.522,110.4,306,110.4c157.478,0,285.6,128.123,285.6,285.6
		S463.478,681.6,306,681.6z"/>
	<path fill="#52B6BC" d="M316.2,355.414V251.966c0-5.641-4.569-10.2-10.2-10.2c-5.63,0-10.2,4.56-10.2,10.2v103.448
		c-14.27,3.713-25.438,14.882-29.151,29.152H193.8c-5.63,0-10.2,4.559-10.2,10.2s4.569,10.2,10.2,10.2h72.849
		c4.56,17.544,20.4,30.6,39.352,30.6c22.501,0,40.8-18.299,40.8-40.8C346.8,375.804,333.744,359.974,316.2,355.414z M306,415.166
		c-11.25,0-20.4-9.149-20.4-20.4c0-11.25,9.149-20.4,20.4-20.4c11.251,0,20.4,9.149,20.4,20.4
		C326.4,406.017,317.251,415.166,306,415.166z"/>
	<path fill="#52B6BC" d="M306,190.766c5.631,0,10.2-4.559,10.2-10.2v-10.2c0-5.641-4.569-10.2-10.2-10.2
		c-5.63,0-10.2,4.559-10.2,10.2v10.2C295.8,186.207,300.37,190.766,306,190.766z"/>
	<path fill="#52B6BC" d="M306,598.766c-5.63,0-10.2,4.56-10.2,10.2v10.2c0,5.641,4.57,10.2,10.2,10.2c5.631,0,10.2-4.56,10.2-10.2
		v-10.2C316.2,603.325,311.631,598.766,306,598.766z"/>
	<path fill="#52B6BC" d="M530.4,384.566h-10.2c-5.631,0-10.2,4.559-10.2,10.2s4.569,10.2,10.2,10.2h10.2
		c5.63,0,10.199-4.56,10.199-10.2S536.03,384.566,530.4,384.566z"/>
	<path fill="#52B6BC" d="M91.8,384.566H81.6c-5.63,0-10.2,4.559-10.2,10.2s4.57,10.2,10.2,10.2h10.2c5.63,0,10.2-4.56,10.2-10.2
		S97.43,384.566,91.8,384.566z"/>
	<path fill="#52B6BC" d="M457.46,228.873l-7.212,7.211c-3.988,3.988-3.988,10.435,0,14.423c1.989,1.989,4.601,2.988,7.212,2.988
		s5.223-1,7.211-2.988l7.212-7.211c3.988-3.988,3.988-10.435,0-14.423S461.448,224.895,457.46,228.873z"/>
	<path fill="#52B6BC" d="M147.329,539.015l-7.211,7.211c-3.988,3.988-3.988,10.435,0,14.423c1.989,1.989,4.601,2.988,7.211,2.988
		c2.611,0,5.223-0.999,7.211-2.988l7.211-7.211c3.988-3.988,3.988-10.436,0-14.423C157.763,535.026,151.307,535.036,147.329,539.015
		z"/>
	<path fill="#52B6BC" d="M464.671,539.015c-3.988-3.988-10.435-3.988-14.423,0c-3.988,3.987-3.988,10.435,0,14.423l7.212,7.211
		c1.989,1.989,4.6,2.988,7.211,2.988s5.223-0.999,7.212-2.988c3.988-3.988,3.988-10.435,0-14.423L464.671,539.015z"/>
	<path fill="#52B6BC" d="M154.54,228.873c-3.988-3.988-10.435-3.988-14.423,0c-3.988,3.988-3.988,10.435,0,14.423l7.211,7.211
		c1.989,1.989,4.601,2.988,7.211,2.988c2.611,0,5.223-1,7.211-2.988c3.988-3.988,3.988-10.435,0-14.423L154.54,228.873z"/>
</g>
</svg>
